#!OML:ASF H:\Terrain\Patient Classification 1\Terrain2\Thursday\justin.ASF
:FULLY-SPECIFIED
:DEGREES
1499
root -1.67139 20.7949 14.0225 362.341 -179.943 -359.097
lowerback 8.9917 0.200948 -5.49938
upperback 2.9343 -0.420843 1.11341
thorax -1.94769 -0.320308 4.30273
lowerneck -13.4216 -4.16951 -7.57624
upperneck 38.1439 -1.57956 4.95968
head 15.9647 0.276112 3.62731
rclavicle 9.14409e-015 -5.36719e-015
rhumerus -28.5823 -4.94579 -82.593
rradius 37.5606
rwrist -11.5796
rhand -21.3383 12.4452
rfingers 7.12502
rthumb 5.04774 -17.4747
lclavicle 9.14409e-015 -5.36719e-015
lhumerus -26.2373 3.15806 78.6063
lradius 44.4586
lwrist 8.69656
lhand -16.6388 21.1064
lfingers 7.12502
lthumb 9.58384 50.8684
rfemur -22.797 -5.85529 22.4536
rtibia 45.5818
rfoot -22.2243 0.79206
rtoes -2.38829
lfemur -12.9042 6.14537 -19.7123
ltibia 25.6118
lfoot -13.1145 -21.3667
ltoes -3.22501
1500
root -1.66887 20.7863 13.9658 362.309 -179.68 -359.334
lowerback 8.78582 0.115732 -5.52841
upperback 3.07444 -0.533136 1.01367
thorax -1.67639 -0.391329 4.22231
lowerneck -13.6775 -4.18585 -7.50975
upperneck 38.2087 -1.57877 4.84697
head 16.0585 0.263847 3.57078
rclavicle -1.08338e-014 3.18055e-015
rhumerus -28.4614 -5.4431 -82.4834
rradius 37.0969
rwrist -11.4276
rhand -21.2174 13.2101
rfingers 7.12502
rthumb 5.16447 -16.707
lclavicle -1.08338e-014 3.18055e-015
lhumerus -26.0472 3.11237 78.6292
lradius 44.3729
lwrist 8.76924
lhand -16.7274 21.2734
lfingers 7.12502
lthumb 9.49836 51.0393
rfemur -22.5932 -5.85453 22.2175
rtibia 44.6045
rfoot -22.1763 1.19143
rtoes -3.0377
lfemur -12.7632 6.76876 -19.9527
ltibia 25.7285
lfoot -12.9037 -22.4396
ltoes -1.33022
1501
root -1.66068 20.7704 13.9117 362.241 -179.442 -359.341
lowerback 8.72267 0.0014746 -5.50199
upperback 3.17907 -0.684149 1.07022
thorax -1.51538 -0.477717 4.27925
lowerneck -13.948 -4.24336 -7.61307
upperneck 38.3795 -1.56921 4.74821
head 16.2167 0.235568 3.55981
rclavicle -1.68967e-015 -1.09332e-014
rhumerus -28.3037 -5.77961 -82.3193
rradius 36.6468
rwrist -11.3763
rhand -20.8133 13.4183
rfingers 7.12502
rthumb 5.55461 -16.4889
lclavicle -1.68967e-015 -1.09332e-014
lhumerus -26.0154 3.31452 78.7024
lradius 44.2506
lwrist 8.58526
lhand -17.1637 21.7842
lfingers 7.12502
lthumb 9.07738 51.5689
rfemur -22.3118 -5.64002 22.2473
rtibia 43.6838
rfoot -22.0522 1.31923
rtoes -2.27322
lfemur -12.5362 6.16794 -19.928
ltibia 25.8353
lfoot -13.5623 -21.9263
ltoes -2.53628
1502
root -1.64915 20.7579 13.8567 362.285 -179.266 -359.367
lowerback 8.5628 -0.122158 -5.58831
upperback 3.17863 -0.841298 1.14381
thorax -1.40653 -0.55869 4.41718
lowerneck -14.0017 -4.2628 -7.741
upperneck 38.4764 -1.53598 4.7397
head 16.2821 0.230671 3.59173
rclavicle -1.52567e-014 -1.23246e-014
rhumerus -28.378 -5.76437 -82.2406
rradius 36.3815
rwrist -11.2824
rhand -20.4584 14.3674
rfingers 7.12502
rthumb 5.89729 -15.5305
lclavicle -1.52567e-014 -1.23246e-014
lhumerus -26.0211 3.71709 78.706
lradius 43.8463
lwrist 7.62959
lhand -16.5297 22.4999
lfingers 7.12502
lthumb 9.68914 52.2571
rfemur -22.1158 -5.19518 22.2605
rtibia 42.8123
rfoot -21.8998 1.24147
rtoes -1.63126
lfemur -12.4522 6.04472 -19.9101
ltibia 25.9391
lfoot -14.0036 -21.8309
ltoes -6.15836
1503
root -1.64257 20.7584 13.7991 362.374 -179.13 -359.534
lowerback 8.33278 -0.182319 -5.61294
upperback 3.11507 -0.901898 1.05347
thorax -1.33921 -0.584426 4.3386
lowerneck -13.8769 -4.27762 -7.61846
upperneck 38.5206 -1.55973 4.6998
head 16.2733 0.243253 3.5517
rclavicle -6.26172e-015 -5.96354e-016
rhumerus -28.5971 -6.00534 -82.1767
rradius 36.0301
rwrist -10.7682
rhand -19.9451 15.325
rfingers 7.12502
rthumb 6.39278 -14.5585
lclavicle -6.26172e-015 -5.96354e-016
lhumerus -26.0634 3.659 78.63
lradius 43.5031
lwrist 6.90652
lhand -15.6589 21.9496
lfingers 7.12502
lthumb 10.5292 51.6658
rfemur -21.9247 -4.98276 22.1171
rtibia 41.964
rfoot -21.832 1.10381
rtoes -2.58315
lfemur -12.4928 7.13157 -20.0348
ltibia 26.1151
lfoot -13.5124 -23.3503
ltoes -8.89948
1504
root -1.63502 20.7594 13.7424 362.32 -179.029 -359.631
lowerback 8.27543 -0.229792 -5.60521
upperback 3.03681 -0.954494 1.03382
thorax -1.38296 -0.603626 4.3182
lowerneck -13.5985 -4.29111 -7.65404
upperneck 38.5777 -1.50919 4.64204
head 16.2317 0.267702 3.54578
rclavicle 3.03147e-015 1.98785e-016
rhumerus -28.849 -6.19854 -82.026
rradius 35.5421
rwrist -10.2483
rhand -19.7035 14.4712
rfingers 7.12502
rthumb 6.62608 -15.4051
lclavicle 3.03147e-015 1.98785e-016
lhumerus -26.2502 3.51531 78.6944
lradius 43.2581
lwrist 6.85448
lhand -15.5892 21.6779
lfingers 7.12502
lthumb 10.5965 51.3907
rfemur -21.5794 -4.69907 22.0616
rtibia 41.1839
rfoot -21.6747 0.969686
rtoes -3.72523
lfemur -12.368 7.40202 -20.0411
ltibia 26.3451
lfoot -13.1205 -24.1594
ltoes -0.193026
